{"title":"Battledogs (2013) BDRip (Russian)","uid":8925996,"size":1467951104,"categoryP":"video","categoryS":"movies","magnet":"?xt=urn:btih:01027e79f5716925bf1f438cb3615b6148f1671f&amp;dn=Battledogs+%282013%29+BDRip+%28Russian%29&amp;tr=udp%3A%2F%2Ftracker.openbittorrent.com%3A80&amp;tr=udp%3A%2F%2Fopen.demonii.com%3A1337&amp;tr=udp%3A%2F%2Ftracker.coppersurfer.tk%3A6969&amp;tr=udp%3A%2F%2Fexodus.desync.com%3A6969","seeders":0,"leechers":0,"uploader":"yfjfrj","files":-1,"time":1379368558,"description":"General\nComplete name                            : D:moviesBattledogs.2013.L1.HDRip.1400MB.avi\nFormat                                   : AVI\nFormat/Info                              : Audio Video Interleave\nFile size                                : 1.37 GiB\nDuration                                 : 1h 28mn\nOverall bit rate                         : 2 210 Kbps\nMovie name                               : Battledogs.2013.L1.HDRip.1400MB.INTERCINEMA\nDirector                                 : INTERCINEMA\nWriting application                      : VirtualDubMod 1.5.10.2 (build 2540/release)\nCopyright                                : http://intercinema.net\n\nVideo\nID                                       : 0\nFormat                                   : MPEG-4 Visual\nFormat profile                           : Advanced Simple@L5\nFormat settings, BVOP                    : 2\nFormat settings, QPel                    : No\nFormat settings, GMC                     : No warppoints\nFormat settings, Matrix                  : Default (MPEG)\nCodec ID                                 : XVID\nCodec ID/Hint                            : XviD\nDuration                                 : 1h 28mn\nBit rate                                 : 1 753 Kbps\nWidth                                    : 720 pixels\nHeight                                   : 400 pixels\nDisplay aspect ratio                     : 16:9\nFrame rate                               : 23.976 fps\nColor space                              : YUV\nChroma subsampling                       : 4:2:0\nBit depth                                : 8 bits\nScan type                                : Progressive\nCompression mode                         : Lossy\nBits/(Pixel*Frame)                       : 0.254\nStream size                              : 1.08 GiB (79%)\nWriting library                          : XviD 1.2.1 (UTC 2008-12-04)\n\nAudio\nID                                       : 1\nFormat                                   : AC-3\nFormat/Info                              : Audio Coding 3\nMode extension                           : CM (complete main)\nFormat settings, Endianness              : Big\nCodec ID                                 : 2000\nDuration                                 : 1h 28mn\nBit rate mode                            : Constant\nBit rate                                 : 448 Kbps\nChannel(s)                               : 6 channels\nChannel positions                        : Front: L C R, Side: L R, LFE\nSampling rate                            : 48.0 KHz\nBit depth                                : 16 bits\nCompression mode                         : Lossy\nStream size                              : 284 MiB (20%)\nAlignment                                : Split accross interleaves\nInterleave, duration                     : 42 ms (1.00 video frame)\nInterleave, preload duration             : 500 ms\n","torrent":{"xt":"urn:btih:01027e79f5716925bf1f438cb3615b6148f1671f","amp;dn":"Battledogs+%282013%29+BDRip+%28Russian%29","amp;tr":["udp%3A%2F%2Ftracker.openbittorrent.com%3A80","udp%3A%2F%2Fopen.demonii.com%3A1337","udp%3A%2F%2Ftracker.coppersurfer.tk%3A6969","udp%3A%2F%2Fexodus.desync.com%3A6969"],"infoHash":"01027e79f5716925bf1f438cb3615b6148f1671f","infoHashBuffer":{"type":"Buffer","data":[1,2,126,121,245,113,105,37,191,31,67,140,179,97,91,97,72,241,103,31]},"announce":[],"urlList":[]}}